# xmcd
#
# Track frame offsets:
#	150
#	13396
#	30536
#	47800
#	63478
#	73879
#
# Disc length: 1208 seconds
# Revision: 0
# Processed by: cddbd v1.5.2PL0 Copyright (c) Steve Scherf et al.
# Submitted via: dBpowerAMP V12.0
#
DISCID=5504b606
DTITLE=Emily Grace Berry - Emily Grace Berry
DYEAR=2012
DGENRE=Country
TTITLE0=When We Meet Again
TTITLE1=Way Back Then
TTITLE2=Someday Soon
TTITLE3=So Sad (To Watch Good Love Go Bad)
TTITLE4=Silver Threads and Golden Needles
TTITLE5=Long Long Time
EXTD=
EXTT0=
EXTT1=
EXTT2=
EXTT3=
EXTT4=
EXTT5=
PLAYORDER=
